/* XPM */
static char *icon32[] = {
/* columns rows colors chars-per-pixel */
"32 32 77 1",
"  c #030202",
". c #080705",
"X c #090806",
"o c #0D0C09",
"O c #100E0A",
"+ c #14120D",
"@ c #171510",
"# c #191510",
"$ c #1C1913",
"% c #211D16",
"& c #221E18",
"* c #242019",
"= c #28231B",
"- c #2E2921",
"; c #332C22",
": c #383126",
"> c #3B3428",
", c #40372C",
"< c #443B2E",
"1 c #453D30",
"2 c #4A3F30",
"3 c #4A4133",
"4 c #4F4538",
"5 c #504536",
"6 c #53493A",
"7 c #584C3C",
"8 c #5D513E",
"9 c #5E5341",
"0 c #615542",
"q c #655C48",
"w c #695C49",
"e c #70624D",
"r c #746550",
"t c #766851",
"y c #786650",
"u c #7B6B54",
"i c #7F6E59",
"p c #836F57",
"a c #84735A",
"s c #89765C",
"d c #8C785F",
"f c #8D7B61",
"g c #927E62",
"h c #ff00ff",
"j c #8F8165",
"k c #958264",
"l c #968668",
"z c #9A8668",
"x c #9C896A",
"c c #A18B6C",
"v c #AA936E",
"b c #A59272",
"n c #AB9373",
"m c #AE9876",
"M c #AC9978",
"N c #B09573",
"B c #B39779",
"V c #B29975",
"C c #B49C7A",
"Z c #B99D7B",
"A c #B6A07C",
"S c #BAA17D",
"D c #BCA87F",
"F c #C0A27C",
"G c #B89F80",
"H c #BCA481",
"J c #BEA788",
"K c #BEA883",
"L c #C1A582",
"P c #C1A688",
"I c #C2AA85",
"U c #C3AC89",
"Y c #C8AE8D",
"T c #C5B08B",
"R c #C9B18D",
"E c #CAB591",
"W c #CDBA93",
/* pixels */
"hhhhhhhhhhhhhhhhhhhhhhhhhhhhhhhh",
"hhhhhhh.4=.hhhhhhhhhhhhhhhhhhhhh",
"hhhhhhh=ZJYce3& hhhhhhhhhhhhhhhh",
"hhhhhhh5VSZZLHSHjq>+hhhhhhhhhhhh",
"hhhhhhhyLLLFZLUIJmASnu7;Xhhhhhhh",
"hhhhhhhzLLHZVZLIUUIIIILZSxr3* hh",
"hhhhhhoILPGZSFSCSKDFLZLSLIPZH4hh",
"hhhhhh:YGZCnPRRYIIZZZDFLZPHAB*hh",
"hhhhhh0HHTI=obSIIUKSILSFZZFFI hh",
"hhhhhhfUEWA*XJRRTEWRFCFUIFSSdhhh",
"hhhhhhnZVZm#*CIPJUTRg 5ZIYLPehhh",
"hhhhh$SPVVCX=mZmNASC1 sYUIII<hhh",
"hhhhh>SJLSco:SAxCVCnoOAZBHIC@hhh",
"hhhhhwSSZVg.3Sao.gJf 4IIZIFChhhh",
"hhhhhfHUEJg 0B3  kH1 fILPZAshhhh",
"hhhh.JRSBZf.rl+>XlM$$ZLASBV8hhhh",
"hhhh&IYJCAa u0of xi.9AIKUAA:hhhh",
"hhhh2VAITIu i&7bog3.xKCAKUS+hhhh",
"hhhhuIHASKe 7Xcg.f@;AIFISAchhhhh",
"hhhhxHHAIA8.#<Ax 9 tvVNCTKuhhhhh",
"hhhXHCCJJB6  kVlO$$MIUDKKK6hhhhh",
"hhh:UUJHVZ1 :TTb  3PHKCIKK-hhhhh",
"hhh7JZHJJSa1dAAl..fISxcATK.hhhhh",
"hhhuAmBZZUUPJHTM>;bma==CAlhhhhhh",
"hhhcKTIHSHUASSDUKUTx<53AAehhhhhh",
"hh@IKTAKAIKSHZCIIJI5*+3CA3hhhhhh",
"hh;ATIFFCSKKWIKSHKSSMX9DI*hhhhhh",
"hhho:8pVmAKKHHIISIIIKaNDM hhhhhh",
"hhhhhhhh@>tdvIFAVUISADDVdhhhhhhh",
"hhhhhhhhhhhh.=6uxVFIFAZS0hhhhhhh",
"hhhhhhhhhhhhhhhhhX;8dAUU>hhhhhhh",
"hhhhhhhhhhhhhhhhhhhhhh@>Ohhhhhhh"
};
